General
Complete name                    : RocknRolla.mkv
Format                           : Matroska
File size                        : 2.05 GiB
Duration                         : 1h 54mn
Overall bit rate                 : 2 570 Kbps


Video
ID                               : 1
Format                           : AVC
Codec ID                         : V_MPEG4/ISO/AVC
Duration                         : 1h 54mn
Bit rate                         : 1 878 Kbps
Nominal bit rate                 : 1 924 Kbps
Width                            : 1 280 pixels
Height                           : 536 pixels
Display aspect ratio             : 2.35:1
Frame rate                       : 23.976 fps
Resolution                       : 8 bits
Colorimetry                      : 4:2:0
Scan type                        : Progressive
Bits/(Pixel*Frame)               : 0.114
Stream size                      : 1.50 GiB (73%)
Writing library                  : x264 core 79


Audio
ID                               : 2
Format                           : AC-3
Format/Info                      : Audio Coding 3
Codec ID                         : A_AC3
Duration                         : 1h 54mn
Bit rate mode                    : Constant
Bit rate                         : 640 Kbps
Channel(s)                       : 6 channels
Channel positions                : Front: L C R, Surround: L R, LFE
Sampling rate                    : 48.0 KHz
Stream size                      : 523 MiB (25%)

Text #1
Language                         : French

Text #2
Language                         : English

Text #3
Language                         : Swedish

Text #4
Language                         : Norwegian

Text #5
Language                         : Spanish

